#!OML:ASF E:/inclinewalkrobotboard/Project1/Captureday1/Session1/subject1.ASF
:FULLY-SPECIFIED
:DEGREES
51
root 0 0 0 -9.919853021711049 17.22065906194597 17.024157545669084
lowerback -0.3325550647422624 -5.285951210695815 -9.14765118182175
upperback -5.9789190506315215 -6.600518111055539 4.826368996840362
thorax -6.3364431190446355 -1.845548774371781 10.246708319692958
lowerneck -6.585684692948783 -7.815942260980849 -5.714038344042407
upperneck 29.643333949468392 -9.776385791687828 0.5246996045426005
head 10.99621267358225 -5.08912581385691 -0.12551938157847742
rclavicle -1.3173132489374782E-14 5.342228137262423E-15
rhumerus 136.984015965283 10.411817251649637 -188.14293160250492
rradius 17.545673491686912
rwrist 81.00420883133421
rhand -16.43754203852047 10.714011396622414
rfingers 7.125019999999998
rthumb 9.782825501859428 -18.772847753315357
lclavicle -3.826320466754597E-15 -1.2668128930749939E-15
lhumerus 51.98806421613679 28.424306889085695 26.748482852684393
lradius 27.69120996635165
lwrist -20.983763516176268
lhand -21.025235251548967 20.832484548305025
lfingers 7.125020000000009
lthumb 5.304739251505605 51.4560766762021
rfemur 147.01711228620496 -197.13910887528073 -165.38985895980176
rtibia 30.901098614186203
rfoot -81.3218491743099 -16.435699852641882
rtoes 46.84990256517264
lfemur -77.25144546557001 12.561008920532519 -64.7262158904177
ltibia 66.16958071495759
lfoot 12.40249500616078 31.93458590392796
ltoes -9.873465671317808
52
root 0 0 0 -9.674418041498264 17.019132870781224 17.02837241452105
lowerback -0.5280197363567618 -5.285639247797281 -9.203719713317497
upperback -6.113104917518852 -6.602239770130787 4.837228050703584
thorax -6.377152296772363 -1.8378466406498324 10.290573353832762
lowerneck -6.521010978871828 -7.83255628267341 -5.74758236510937
upperneck 29.612355505956355 -9.809818470858641 0.6088681734783341
head 10.97282289420308 -5.100996047384047 -0.09948668526552562
rclavicle -1.2777174159898837E-14 6.264259198679687E-15
rhumerus 145.7790776515775 11.053064103444356 -194.25829262683635
rradius 16.470282994891285
rwrist 85.15906597872745
rhand -16.722033558866926 10.136243021199489
rfingers 7.125019999999996
rthumb 9.49166909760669 -19.4361404597638
lclavicle -1.0929282191962765E-15 1.2305569988734145E-16
lhumerus 57.66399910560355 30.588357071363355 24.316254187037096
lradius 29.744598696711297
lwrist -22.191831601681137
lhand -21.962799872315475 18.293493920904226
lfingers 7.125019999999999
lthumb 4.411952353531511 49.03091206498463
rfemur 153.4013958608881 -204.25427909971506 -173.2390763675503
rtibia 34.369721949852455
rfoot -79.90612138193498 -19.659777288074682
rtoes 49.37612565480943
lfemur -84.37581180371097 15.376313008418393 -65.0496412135831
ltibia 66.5228686514395
lfoot 8.844417518272753 35.5565741002894
ltoes -4.452501067978419
53
root 0 0 0 -9.422922157389301 16.777617163782683 17.021378314534388
lowerback -0.8366373468418731 -5.297747299787964 -9.221758910534561
upperback -6.239200378435788 -6.615017195951931 4.880763544319
thorax -6.339198591485629 -1.8392406701324264 10.349124241631776
lowerneck -6.426526431596085 -7.874081190426502 -5.7805403493242755
upperneck 29.760577363173432 -9.886443821622152 0.6739239726107078
head 11.014371568158522 -5.132732331763918 -0.0804041273714784
rclavicle -1.2448192301477827E-14 6.63305301079271E-15
rhumerus 147.05069999934116 10.912334507803493 -194.20296663145476
rradius 16.450676526514858
rwrist 86.03509031730212
rhand -16.779233697347284 10.053917498816421
rfingers 7.125019999999996
rthumb 9.430752726827546 -19.538196820021554
lclavicle 7.211023881909013E-16 9.06292530971868E-16
lhumerus 58.5029669834875 31.157754951606705 23.232520889818318
lradius 30.929100426164343
lwrist -22.92979174930595
lhand -21.82433502898205 17.169788811733216
lfingers 7.125019999999997
lthumb 4.555688662574855 47.883193908732586
rfemur 152.12059796851017 -204.9581225773961 -174.84234240670708
rtibia 38.60694767223262
rfoot -80.80331125762301 -19.555336764926846
rtoes 51.397430708016714
lfemur -85.92830329085265 16.036503256690885 -64.90293313338807
ltibia 66.65763686868408
lfoot 8.16136875126254 36.23619281271502
ltoes -3.0370134181291046
54
root 0 0 0 -9.210617828087685 16.68356047120007 16.99178413719651
lowerback -1.1058893579654958 -5.313000356968814 -9.219698060234526
upperback -6.347940605864801 -6.631572767795041 4.933566965729085
thorax -6.301442834116812 -1.8451087224447764 10.40612802061058
lowerneck -6.333934455361248 -7.921259412502415 -5.821021175456945
upperneck 29.899168509071608 -9.964825252174654 0.7244397422317514
head 11.053711956123374 -5.167163084380215 -0.06571990600809685
rclavicle -1.2162510556933147E-14 7.07299925921445E-15
rhumerus 147.25676369950807 10.739056844699071 -193.18945015839694
rradius 16.72057495187587
rwrist 86.36539649657142
rhand -16.815521503151885 10.080273439604543
rfingers 7.125019999999995
rthumb 9.394099172906506 -19.51868144594444
lclavicle 2.157695045991062E-15 1.7207408201366454E-15
lhumerus 58.65149266792339 31.30326604625591 22.57781139087099
lradius 31.96101312784932
lwrist -23.375005797876874
lhand -21.424787654911995 16.46461132352556
lfingers 7.125019999999997
lthumb 4.946853744377432 47.12072123701786
rfemur 149.35853331639296 -204.70495550095347 -175.56448757085082
rtibia 44.0845707725448
rfoot -82.1910926286827 -18.132963006021747
rtoes 53.42664979119568
lfemur -86.55636859687249 16.324777078149157 -64.76327720530014
ltibia 66.70677680291567
lfoot 7.8178489178887105 36.50268620620842
ltoes -2.2006495155872994
